#!OML:ASF E:\Mandelcareful walks\Project 1\Capture day 1\Session 1\Subject1.ASF
:FULLY-SPECIFIED
:DEGREES
307
root -19.0574 9.43483 1.71184 155.595 65.7003 113.149
lowerback 45.5577 -2.97104 -6.9183
upperback 9.99389 -4.95657 -3.40843
thorax -9.46181 -1.24661 1.84619
lowerneck -34.9754 0.201876 -6.8396
upperneck 8.95854 5.31457 -7.30767
head 8.28296 1.59573 -0.641569
rclavicle 6.20208e-014 4.95968e-014
rhumerus 3.46164 21.6719 -58.3551
rradius 81.4309
rwrist -24.5633
rhand -34.3531 -51.3593
rfingers 7.12502
rthumb -7.52036 638.794
lclavicle 6.20208e-014 4.95968e-014
lhumerus 60.8367 -18.2752 57.42
lradius 24.8855
lwrist 2.3297
lhand -41.9105 -28.5116
lfingers 7.12502
lthumb -14.809 0.939229
rfemur -47.4111 -50.5115 -6.59104
rtibia 125.418
rfoot -22.0638 27.148
rtoes -2.99361
lfemur -78.7808 41.1813 -21.3475
ltibia 124.938
lfoot -18.106 -29.3425
ltoes -32.6109
308
root -19.2149 9.36067 1.69642 157.89 65.1854 114.589
lowerback 43.5931 -3.3505 -6.88917
upperback 10.0335 -5.32671 -3.39101
thorax -8.85776 -1.48296 1.98296
lowerneck -33.8067 0.0839098 -5.2232
upperneck 6.80951 4.37181 -8.28351
head 7.42875 1.27615 -1.3636
rclavicle 2.54444e-014 8.84592e-015
rhumerus 2.46395 23.1137 -62.0782
rradius 79.7103
rwrist -23.4331
rhand -33.4492 -51.6214
rfingers 7.12502
rthumb -6.64791 638.503
lclavicle 2.54444e-014 8.84592e-015
lhumerus 60.9082 -18.0162 57.8435
lradius 24.5641
lwrist 1.24568
lhand -41.4972 -27.469
lfingers 7.12502
lthumb -14.4107 2.01073
rfemur -49.5324 -51.9838 -6.08033
rtibia 126.885
rfoot -22.1829 27.7295
rtoes -1.9001
lfemur -83.1605 41.2749 -23.399
ltibia 126.053
lfoot -17.85 -29.6272
ltoes -32.7276
309
root -19.3314 9.34087 1.68088 159.624 64.6722 115.831
lowerback 42.1866 -3.77885 -6.83534
upperback 10.0146 -5.78594 -3.47352
thorax -8.45843 -1.73565 2.03102
lowerneck -33.2654 -0.0925776 -4.0998
upperneck 5.6256 3.58695 -8.59245
head 6.95721 0.988388 -1.75094
rclavicle -7.4743e-014 -2.89232e-014
rhumerus 2.03022 24.2163 -65.6779
rradius 77.419
rwrist -23.1133
rhand -32.89 -52.2543
rfingers 7.12502
rthumb -6.10804 637.854
lclavicle -7.4743e-014 -2.89232e-014
lhumerus 60.9037 -17.7337 58.2547
lradius 24.1936
lwrist 0.300065
lhand -41.1573 -26.6385
lfingers 7.12502
lthumb -14.0832 2.86433
rfemur -50.7644 -54.322 -6.29405
rtibia 127.764
rfoot -21.508 29.1048
rtoes -4.48239
lfemur -86.3206 40.9686 -25.4034
ltibia 126.66
lfoot -17.52 -30.4544
ltoes -33.4026
310
root -19.4439 9.33258 1.66575 160.503 63.9267 117.297
lowerback 41.6135 -4.72205 -4.85717
upperback 11.0598 -5.99863 -5.08704
thorax -7.51731 -1.75899 -0.636931
lowerneck -37.2147 -1.28064 -3.53914
upperneck 7.58175 1.85406 -6.4362
head 8.02926 0.240388 -1.42485
rclavicle 9.54166e-014 1.86858e-014
rhumerus 2.0536 22.7327 -70.5862
rradius 72.9628
rwrist -18.7511
rhand -37.6822 -49.274
rfingers 7.12502
rthumb -10.7328 641.02
lclavicle 9.54166e-014 1.86858e-014
lhumerus 63.9977 -19.1146 55.0976
lradius 24.3763
lwrist 0.144226
lhand -40.5066 -24.6188
lfingers 7.12502
lthumb -13.4561 4.92653
rfemur -49.5267 -56.0291 -8.18207
rtibia 128.323
rfoot -20.8261 30.6415
rtoes -6.31757
lfemur -87.703 40.1504 -26.5566
ltibia 127.011
lfoot -17.0275 -31.4789
ltoes -34.2167
311
root -19.5599 9.31849 1.64324 161.408 63.2079 119.051
lowerback 41.7694 -5.23037 -4.88582
upperback 11.1833 -6.54995 -4.95105
thorax -7.39955 -1.99554 -0.262773
lowerneck -37.5114 -1.50601 -3.77499
upperneck 7.70635 1.5121 -5.5377
head 8.08111 0.160565 -1.12879
rclavicle -7.95139e-014 4.69132e-014
rhumerus 3.09194 23.5238 -72.9744
rradius 69.8617
rwrist -18.1135
rhand -37.7234 -48.928
rfingers 7.12502
rthumb -10.7725 641.368
lclavicle -7.95139e-014 4.69132e-014
lhumerus 64.0256 -18.2194 56.3975
lradius 23.5882
lwrist -2.27613
lhand -39.6683 -22.7151
lfingers 7.12502
lthumb -12.6481 6.8819
rfemur -47.4243 -57.3744 -10.5601
rtibia 128.799
rfoot -20.17 32.2786
rtoes -7.63844
lfemur -88.583 39.0502 -27.2353
ltibia 127.232
lfoot -15.8632 -32.7013
ltoes -33.6608
312
root -19.6917 9.27562 1.62838 162.536 63.2231 120.331
lowerback 40.8656 -5.29717 -5.22452
upperback 11.2814 -6.71552 -4.8269
thorax -6.95626 -2.11205 0.0718462
lowerneck -37.939 -1.66046 -3.83155
upperneck 7.98265 1.206 -4.7264
head 8.21212 0.0875174 -0.886603
rclavicle 1.30403e-013 -2.20651e-014
rhumerus 4.85979 24.3005 -74.8735
rradius 65.5688
rwrist -16.3789
rhand -37.4802 -48.801
rfingers 7.12502
rthumb -10.5379 641.483
lclavicle 1.30403e-013 -2.20651e-014
lhumerus 64.2117 -17.5508 57.1461
lradius 22.7702
lwrist -3.52
lhand -39.1145 -21.7596
lfingers 7.12502
lthumb -12.114 7.86973
rfemur -47.5556 -58.2836 -11.1391
rtibia 129.65
rfoot -19.3822 33.7209
rtoes -7.6026
lfemur -90.5988 38.7814 -28.3258
ltibia 127.641
lfoot -14.2881 -34.0585
ltoes -32.4759
313
root -19.8201 9.24568 1.59998 163.66 62.9651 121.998
lowerback 40.4047 -5.6273 -5.13935
upperback 11.3329 -7.06145 -4.84938
thorax -6.76468 -2.28307 0.121384
lowerneck -38.0509 -1.7551 -3.66004
upperneck 8.35445 0.842285 -3.99546
head 8.34389 -0.0174833 -0.714877
rclavicle 2.22639e-014 6.44062e-014
rhumerus 7.04283 24.4852 -76.6412
rradius 61.2932
rwrist -15.2097
rhand -36.7161 -47.9418
rfingers 7.12502
rthumb -9.80073 642.306
lclavicle 2.22639e-014 6.44062e-014
lhumerus 64.1876 -17.1714 57.748
lradius 22.0477
lwrist -4.3584
lhand -38.6727 -20.9817
lfingers 7.12502
lthumb -11.688 8.67226
rfemur -46.788 -59.3831 -12.4039
rtibia 130.355
rfoot -18.8339 34.9287
rtoes -9.40364
lfemur -91.8355 37.8754 -29.2008
ltibia 127.924
lfoot -13.6974 -34.5496
ltoes -32.2577
